<svg id="Logo-HA" xmlns="http://www.w3.org/2000/svg" xmlns:xlink="http://www.w3.org/1999/xlink" viewBox="0 0 449.34 97.39"><defs><style>.cls-1{fill:#2a3263;}.cls-2{fill:url(#Dégradé_sans_nom_173);}.cls-3{fill:url(#Dégradé_sans_nom_152);}.cls-4{fill:url(#Dégradé_sans_nom_164);}</style><linearGradient id="Dégradé_sans_nom_173" x1="9.25" y1="32.45" x2="53.97" y2="109.21" gradientTransform="translate(1.27 -7.94) rotate(0.23)" gradientUnits="userSpaceOnUse"><stop offset="0" stop-color="#3b8964"/><stop offset="0.25" stop-color="#5abf8c"/></linearGradient><linearGradient id="Dégradé_sans_nom_152" x1="44.77" y1="100.31" x2="90.49" y2="25.52" gradientTransform="translate(1.27 -7.94) rotate(0.23)" gradientUnits="userSpaceOnUse"><stop offset="0" stop-color="#803471"/><stop offset="0.21" stop-color="#b34f9e"/></linearGradient><linearGradient id="Dégradé_sans_nom_164" x1="6.28" y1="27.8" x2="84.28" y2="55.84" gradientTransform="translate(1.27 -7.94) rotate(0.23)" gradientUnits="userSpaceOnUse"><stop offset="0.6" stop-color="#f99c2e"/><stop offset="1" stop-color="#c57538"/></linearGradient></defs><title>Logo-HA_bleu</title><path class="cls-1" d="M157.32,47V76.75H142.38v-27c0-3.17-.9-3.92-2.26-3.92-1.58,0-3.32,1.28-5.05,4V76.75H120.14V20.64l14.93-1.51v21c3.47-3.62,6.86-5.13,11.39-5.13C153.17,35,157.32,39.34,157.32,47Z"/><path class="cls-1" d="M200.91,60.84H176.47c.83,5.8,3.7,6.86,8.07,6.86,2.87,0,5.66-1.13,9.13-3.54l6,8.14a26.08,26.08,0,0,1-16.59,6c-14.78,0-21.72-9.13-21.72-21.57,0-11.77,6.71-21.72,20.06-21.72,11.92,0,19.76,7.62,19.76,21.12C201.21,57.37,201.06,59.4,200.91,60.84Zm-14.41-9c-.07-4.07-.9-7.46-4.75-7.46-3.16,0-4.82,1.81-5.35,8h10.1Z"/><path class="cls-1" d="M204.91,65.14V20.64l14.93-1.51v45.4c0,1.36.6,2,1.81,2a4.17,4.17,0,0,0,1.58-.3l2.64,10.63a23.84,23.84,0,0,1-8.29,1.36C209.43,78.26,204.91,73.51,204.91,65.14Z"/><path class="cls-1" d="M227.53,65.14V20.64l14.93-1.51v45.4c0,1.36.61,2,1.81,2a4.27,4.27,0,0,0,1.59-.3L248.5,76.9a23.9,23.9,0,0,1-8.3,1.36C232.06,78.26,227.53,73.51,227.53,65.14Z"/><path class="cls-1" d="M289.37,56.69c0,13.12-7.92,21.57-20.74,21.57-12.67,0-20.74-7.69-20.74-21.72,0-13.12,7.92-21.57,20.74-21.57S289.37,42.66,289.37,56.69Zm-26.17-.15c0,8,1.66,11,5.43,11s5.43-3.24,5.43-10.86c0-8-1.66-11-5.43-11S263.2,48.92,263.2,56.54Z"/><path class="cls-1" d="M331.08,68.38l-3,9.58c-5.2-.38-8.59-1.74-10.86-5.58-2.94,4.45-7.54,5.88-12.14,5.88-8.07,0-13.27-5.36-13.27-12.82,0-8.9,6.78-13.8,19.46-13.8h2.86v-1c0-4.08-1.36-5.13-5.81-5.13a37,37,0,0,0-10.4,2.11l-3.25-9.5A46.25,46.25,0,0,1,310.57,35c12.82,0,18.1,4.9,18.1,14.86V63.7C328.67,66.57,329.27,67.7,331.08,68.38Zm-17-3v-6h-1.58c-4.23,0-6.19,1.44-6.19,4.6,0,2.27,1.29,3.78,3.32,3.78A5.55,5.55,0,0,0,314.11,65.36Z"/><path class="cls-1" d="M367,40.17l-5.28,8.07a18.54,18.54,0,0,0-9.58-2.94c-2.49,0-3.39.76-3.39,1.81,0,1.36.45,2,8.07,4.3s11.84,5.66,11.84,13c0,8.3-7.92,13.88-19.08,13.88-7.09,0-13.58-2.49-17.73-6.41L338.92,64a17.21,17.21,0,0,0,10.26,4c2.64,0,4.22-.83,4.22-2.49,0-2-.83-2.33-7.76-4.45C338.09,58.8,334,54.5,334,48,334,40.78,340.21,35,351.52,35,357.48,35,363.28,37,367,40.17Z"/><path class="cls-1" d="M404.16,40.17l-5.28,8.07a18.49,18.49,0,0,0-9.58-2.94c-2.49,0-3.39.76-3.39,1.81,0,1.36.45,2,8.07,4.3s11.84,5.66,11.84,13c0,8.3-7.92,13.88-19.08,13.88-7.09,0-13.58-2.49-17.72-6.41L376.1,64a17.21,17.21,0,0,0,10.26,4c2.64,0,4.23-.83,4.23-2.49,0-2-.83-2.33-7.77-4.45-7.54-2.26-11.69-6.56-11.69-13,0-7.24,6.26-13.05,17.57-13.05C394.66,35,400.47,37,404.16,40.17Z"/><path class="cls-1" d="M449.34,56.69c0,13.12-7.92,21.57-20.74,21.57s-20.74-7.69-20.74-21.72c0-13.12,7.92-21.57,20.74-21.57C441.27,35,449.34,42.66,449.34,56.69Zm-26.17-.15c0,8,1.66,11,5.43,11S434,64.31,434,56.69c0-8-1.66-11-5.43-11S423.17,48.92,423.17,56.54Z"/><path class="cls-2" d="M29.27,78.2c-15-17.05-5-60.15,1.38-60.15C18.33,17.81-2.45,25.89.35,54.72A48.84,48.84,0,0,0,78.47,87.34C54.91,104.19,38.94,89.17,29.27,78.2Z"/><path class="cls-3" d="M84.3,49.24c-12.46,24.93-50.68,35.42-55,29,7.47,10.85,26,26,49.35,9A48.73,48.73,0,0,0,67.14,3.61C93.53,15.33,90.86,36.11,84.3,49.24Z"/><path class="cls-4" d="M30.65,18.05c27-2.89,57.53,24.75,53.65,31.19,7.6-12.88,9.34-33.91-17-45.63A48.87,48.87,0,0,0,.44,55.41C-1.47,26.74,20.57,19.13,30.65,18.05Z"/></svg>
